<svg height="600" width="1200" xmlns="http://www.w3.org/2000/svg"><path d="m0 0h1200v600h-1200z" fill="#fff"/><path d="m0 200h1200v400h-1200z" fill="#0000bf"/><path d="m0 400h1200v200h-1200z" fill="#d50000"/><path d="m227.41468 115.3367c-1.84803.8149-3.68224 1.66088-5.50265 2.53724l5.73469 90.7426c1.56212 24.73842 12.08262 48.15024 29.71347 65.78039 12.05638 12.05569 26.81574 20.78825 42.85477 25.60306h.00138c16.03904-4.8155 30.79909-13.54737 42.85478-25.60306 17.63016-17.63015 28.15135-41.04197 29.71278-65.78039l5.73538-90.7426c-1.8211-.87636-3.65393-1.72234-5.50334-2.53724l.00138.00069-5.87004 92.89102c-1.4689 23.38143-11.4093 45.51011-28.07124 62.17206-10.98044 10.98182-24.33652 19.04241-38.85901 23.68391h-.00207c-14.52318-4.6415-27.87787-12.70209-38.85831-23.68391-16.66263-16.66195-26.60303-38.79063-28.07124-62.17206l-5.87073-92.89171h.00138" fill="#d50000"/><path d="m373.01732 115.33739c-22.7226-10.01844-47.48796-15.33739-72.80167-15.33739-25.31439 0-50.07976 5.31895-72.80235 15.33739l5.87142 92.89102c1.4682 23.38143 11.40861 45.51011 28.07124 62.17206 10.98113 10.98182 24.33582 19.04241 38.85831 23.68391h.00207c14.52249-4.6415 27.87857-12.70209 38.85762-23.68391 16.66333-16.66195 26.60373-38.79063 28.07124-62.17206" fill="#0000bf"/><g fill="#ffdf00" transform="matrix(.6905934 0 0 .6905934 221.91203 100)"><path d="m119.764 62.917 4.67-6.378-7.86.855-3.188-7.233-3.189 7.233-7.859-.855 4.67 6.378-4.67 6.378 7.859-.855 3.189 7.233 3.188-7.233 7.86.855"/><path d="m90 23.232 4.669-6.378-7.858.855-3.189-7.233-3.189 7.233-7.858-.855 4.669 6.378-4.669 6.378 7.858-.855 3.189 7.233 3.189-7.233 7.858.855"/><path d="m149.527 23.232 4.668-6.378-7.857.855-3.19-7.233-3.189 7.233-7.857-.855 4.669 6.378-4.669 6.378 7.857-.855 3.189 7.233 3.19-7.233 7.857.855"/></g><g fill="#fff"><path d="m358.94372 221.75438-29.36473-39.1525-11.74561 15.66127-17.61842-35.23683-17.61842 35.23683-11.74561-15.66127-29.36403 39.1525c0 5.19188 2.0628 10.17037 5.734 13.84156 3.67119 3.66981 8.64968 5.73401 13.84225 5.73401 3.46678 0 6.83895-.91987 9.78916-2.62358.01934-.01243-.02348.01382-.00483.00278 1.47027-.84943 3.05657-1.51104 4.72435-1.95715 5.01509-1.3432 10.35821-.64087 14.85466 1.95437 3.00201 1.7334 6.38247 2.62358 9.78985 2.62358h-.00345c3.40808 0 6.78784-.89018 9.79054-2.62358 4.49577-2.59524 9.83958-3.29896 14.85467-1.95437 1.66709.44611 3.25338 1.10772 4.72366 1.95715.02002.01104-.02279-.01451-.00415-.00278 2.95091 1.70371 6.32169 2.62358 9.78847 2.62358 5.19327 0 10.17175-2.0635 13.84295-5.73401 3.67119-3.67119 5.734-8.64968 5.734-13.84156"/><path d="m248.44325 243.01153c1.34735 2.67744 2.82867 5.28996 4.43844 7.82719 0 0-.00069.00138 0 .00277 4.13251 1.90051 8.81819 2.31072 13.24835 1.12359 1.66847-.44612 3.25407-1.1084 4.72434-1.95715.01934-.01104-.02347.01382-.00414.00278 2.95022-1.70508 6.32238-2.62358 9.78916-2.62358h-.00207c3.40739-.00137 6.78784.88879 9.78985 2.62358 4.49646 2.59523 9.83958 3.29757 14.85536 1.95437 1.66709-.44612 3.25338-1.1084 4.72366-1.95715.02002-.01104-.02279.01382-.00415.00278 2.94953-1.70508 6.3217-2.62358 9.78986-2.62358h-.00277c3.40739-.00137 6.78854.88879 9.78985 2.62358 4.49715 2.59523 9.83958 3.29757 14.85467 1.95437 1.07663-.28729 2.11736-.66643 3.11596-1.12498 1.61046-2.53861 3.09178-5.15113 4.43913-7.82718 0-.00139 0 0 0 0-.97788.37223-1.92607.82249-2.83489 1.34734-.01864.01106.02417-.0138.00553-.00276-1.47027.84875-3.05657 1.50965-4.72504 1.95715-5.01509 1.3432-10.35752.64087-14.85467-1.95576-3.00131-1.7334-6.38246-2.62219-9.78985-2.62219-.0069 0 .00967 0 .00277 0-3.46748 0-6.83964.91987-9.78986 2.62356-.01864.01106.02417-.0138.00415-.00276-1.47028.84943-3.05657 1.51101-4.72366 1.95715-5.01578 1.34459-10.3589.64225-14.85536-1.95439-3.00201-1.73338-6.38246-2.62356-9.78985-2.62356-.0076 0 .00898 0 .00207 0-3.46678 0-6.83894.91987-9.78916 2.62495-.01933.01104.02348-.01382.00414-.00276-1.47027.84873-3.05587 1.50962-4.72434 1.95713-5.01509 1.34322-10.35821.64088-14.85467-1.95576-.91227-.52623-1.85977-.97511-2.83212-1.34459-.00069 0 0-.00136 0 0"/><path d="m342.47859 258.03471c-2.28103 2.92258-4.75059 5.72017-7.40109 8.36929-9.90311 9.90311-21.8559 17.28348-34.86254 21.72952h-.00069c-13.00663-4.44604-24.96012-11.82502-34.86322-21.72952-2.64981-2.64912-5.11937-5.44671-7.4004-8.36929 2.69953.43437 5.48676.30248 8.1787-.41781 1.66847-.44751 3.25407-1.10841 4.72434-1.95715.01934-.01104-.02348.01382-.00414.00277 2.95021-1.70507 6.32238-2.62357 9.78916-2.62357h-.00207c3.40739-.00137 6.78784.88879 9.78985 2.62219 4.49646 2.59662 9.83958 3.29895 14.85467 1.95576 1.66847-.44751 3.25476-1.10841 4.72504-1.95715.01864-.01104-.02417.01382-.00415.00277 2.94953-1.70507 6.3217-2.62357 9.78847-2.62357h-.00138c3.40739-.00137 6.78715.88879 9.78985 2.62219 3.91567 2.2617 8.47566 3.08627 12.90029 2.37287.00138 0 0 0-.00138.00139"/></g></svg>