<?xml version="1.0" encoding="UTF-8" standalone="no"?>
<!DOCTYPE svg PUBLIC "-//W3C//DTD SVG 1.1//EN" "http://www.w3.org/Graphics/SVG/1.1/DTD/svg11.dtd">
<svg width="100%" height="100%" viewBox="0 0 1024 1024" version="1.1" xmlns="http://www.w3.org/2000/svg" xmlns:xlink="http://www.w3.org/1999/xlink" xml:space="preserve" xmlns:serif="http://www.serif.com/" style="fill-rule:evenodd;clip-rule:evenodd;stroke-linejoin:round;stroke-miterlimit:2;">
    <g>
        <path d="M924,284C924,182.448 841.552,100 740,100L284,100C182.448,100 100,182.448 100,284L100,740C100,841.552 182.448,924 284,924L740,924C841.552,924 924,841.552 924,740L924,284Z" style="fill:white;"/>
        <g transform="matrix(1.24272,0,0,1.24272,-124.272,-124.272)">
            <rect x="100" y="100" width="824" height="824" style="fill:white;"/>
        </g>
    </g>
    <rect x="312" y="259" width="189.44" height="505.173" style="fill:url(#_Linear1);fill-rule:nonzero;"/>
    <path d="M312,669.453C312,322.147 754.027,322.147 754.027,322.147L754.027,511.587C754.027,511.587 501.44,511.587 501.44,669.453L501.44,764.173L312,764.173L312,669.453Z" style="fill:url(#_Linear2);fill-rule:nonzero;"/>
    <defs>
        <linearGradient id="_Linear1" x1="0" y1="0" x2="1" y2="0" gradientUnits="userSpaceOnUse" gradientTransform="matrix(-11.847,357.937,-357.937,-11.847,406.72,259)"><stop offset="0" style="stop-color:rgb(18,122,238);stop-opacity:1"/><stop offset="1" style="stop-color:rgb(17,122,239);stop-opacity:0.25"/></linearGradient>
        <linearGradient id="_Linear2" x1="0" y1="0" x2="1" y2="0" gradientUnits="userSpaceOnUse" gradientTransform="matrix(453.867,0,0,453.867,306.08,543.16)"><stop offset="0" style="stop-color:rgb(16,240,94);stop-opacity:0.25"/><stop offset="1" style="stop-color:rgb(16,240,94);stop-opacity:1"/></linearGradient>
    </defs>
</svg>
