<svg width="1024" height="1024" viewBox="0 0 1024 1024" fill="none" xmlns="http://www.w3.org/2000/svg">
<g filter="url(#filter0_di)">
<rect x="100" y="100" width="824" height="824" rx="184" fill="white"/>
<rect x="100" y="100" width="824" height="824" rx="184" fill="url(#paint0_linear)"/>
</g>
<path d="M312 276.222V287.703H320V322.147H312V333.628H320V368.072H312V379.553H320V413.996H312V425.478H320V459.921H312V471.402H320V505.846H312V517.327H320V551.771H312V563.252H320V597.696H312V609.177H320V643.621H312V655.102H320V689.545H312V701.027H320V735.47H312V746.952H320V756.173H329.76V764.173H341.6V756.173H377.12V764.173H388.96V756.173H424.48V764.173H436.32V756.173H471.84V764.173H483.68V756.173H493.44V746.952H501.44V735.47H493.44V701.027H501.44V689.546H493.44V655.102H501.44V643.621H493.44V609.177H501.44V597.696H493.44V563.252H501.44V551.771H493.44V517.327H501.44V505.846H493.44V471.402H501.44V459.921H493.44V425.478H501.44V413.996H493.44V379.553H501.44V368.072H493.44V333.628H501.44V322.147H493.44V287.703H501.44V276.222H493.44V267H483.68V259H471.84V267H436.32V259H424.48V267H388.96V259H377.12V267H341.6V259H329.76V267H320V276.222H312Z" stroke="#9EABC1" stroke-width="16" stroke-dasharray="36 12"/>
<path d="M493.44 687.213H501.44V699.053H493.44V734.573H501.44V746.413H493.44V756.173H483.68V764.173H471.84V756.173H436.32V764.173H424.48V756.173H388.96V764.173H377.12V756.173H341.6V764.173H329.76V756.173H320V746.413H312V734.573H320V699.053H312V687.213H320V669.453C320 663.342 320.14 657.345 320.413 651.46L312.422 651.088C312.608 647.081 312.856 643.122 313.163 639.211L321.138 639.837C322.097 627.617 323.649 615.896 325.742 604.652L317.877 603.188C318.626 599.163 319.443 595.196 320.326 591.285L328.13 593.047C330.794 581.249 334.07 569.995 337.897 559.257L330.361 556.572C331.734 552.719 333.176 548.929 334.686 545.201L342.101 548.203C346.605 537.077 351.719 526.526 357.367 516.52L350.401 512.587C352.395 509.055 354.454 505.588 356.574 502.185L363.364 506.416C369.664 496.308 376.528 486.78 383.873 477.797L377.68 472.733C380.24 469.602 382.856 466.536 385.525 463.534L391.503 468.85C399.382 459.988 407.742 451.687 416.494 443.912L411.18 437.932C414.2 435.248 417.264 432.627 420.369 430.067L425.459 436.239C434.611 428.692 444.135 421.676 453.935 415.154L449.503 408.494C452.867 406.255 456.262 404.074 459.684 401.95L463.904 408.746C474.024 402.462 484.393 396.675 494.909 391.347L491.293 384.211C494.907 382.38 498.537 380.603 502.178 378.878L505.602 386.108C516.453 380.968 527.418 376.296 538.386 372.052L535.499 364.591C539.284 363.126 543.068 361.712 546.847 360.346L549.566 367.87C560.993 363.74 572.378 360.061 583.596 356.783L581.352 349.104C585.238 347.968 589.104 346.88 592.943 345.838L595.039 353.559C606.97 350.32 618.652 347.529 629.926 345.122L628.256 337.299C632.269 336.442 636.229 335.634 640.132 334.872L641.665 342.723C654.15 340.284 666.029 338.317 677.068 336.732L675.93 328.813C680.026 328.225 684.008 327.688 687.863 327.199L688.87 335.135C702.541 333.401 714.6 332.269 724.512 331.531L723.917 323.553C728.39 323.22 732.434 322.966 736 322.772L736.435 330.76C740.195 330.555 743.412 330.419 746.027 330.328V339.907H754.027V351.747H746.027V387.267H754.027V399.107H746.027V434.627H754.027V446.467H746.027V481.987H754.027V493.827H746.027V503.773C743.283 503.873 739.891 504.027 735.944 504.264L736.424 512.25C732.93 512.46 728.989 512.736 724.669 513.1L723.997 505.129C713.879 505.982 701.713 507.308 688.331 509.37L689.55 517.277C685.761 517.861 681.873 518.505 677.906 519.215L676.496 511.341C665.263 513.352 653.386 515.888 641.299 519.089L643.346 526.823C639.576 527.821 635.786 528.885 631.992 530.019L629.702 522.354C618.286 525.764 606.782 529.805 595.554 534.596L598.694 541.954C595.076 543.498 591.491 545.12 587.952 546.826L584.48 539.619C573.428 544.944 562.743 551.084 552.814 558.169L557.46 564.681C554.249 566.972 551.127 569.362 548.107 571.855L543.014 565.686C533.405 573.62 524.708 582.612 517.373 592.802L523.866 597.476C521.578 600.653 519.436 603.949 517.454 607.366L510.534 603.353C504.407 613.917 499.709 625.573 496.803 638.404L504.605 640.171C503.756 643.919 503.07 647.776 502.556 651.746L494.622 650.719C493.843 656.74 493.44 662.983 493.44 669.453V687.213Z" stroke="#9EABC1" stroke-width="16" stroke-dasharray="36 12"/>
<defs>
<filter id="filter0_di" x="96" y="100" width="832" height="832" filterUnits="userSpaceOnUse" color-interpolation-filters="sRGB">
<feFlood flood-opacity="0" result="BackgroundImageFix"/>
<feColorMatrix in="SourceAlpha" type="matrix" values="0 0 0 0 0 0 0 0 0 0 0 0 0 0 0 0 0 0 127 0"/>
<feOffset dy="4"/>
<feGaussianBlur stdDeviation="2"/>
<feColorMatrix type="matrix" values="0 0 0 0 0 0 0 0 0 0 0 0 0 0 0 0 0 0 0.25 0"/>
<feBlend mode="normal" in2="BackgroundImageFix" result="effect1_dropShadow"/>
<feBlend mode="normal" in="SourceGraphic" in2="effect1_dropShadow" result="shape"/>
<feColorMatrix in="SourceAlpha" type="matrix" values="0 0 0 0 0 0 0 0 0 0 0 0 0 0 0 0 0 0 127 0" result="hardAlpha"/>
<feMorphology radius="4" operator="erode" in="SourceAlpha" result="effect2_innerShadow"/>
<feOffset/>
<feGaussianBlur stdDeviation="6"/>
<feComposite in2="hardAlpha" operator="arithmetic" k2="-1" k3="1"/>
<feColorMatrix type="matrix" values="0 0 0 0 1 0 0 0 0 1 0 0 0 0 1 0 0 0 0.1 0"/>
<feBlend mode="normal" in2="shape" result="effect2_innerShadow"/>
</filter>
<linearGradient id="paint0_linear" x1="512" y1="100" x2="512" y2="924" gradientUnits="userSpaceOnUse">
<stop stop-color="#2D487A"/>
<stop offset="1" stop-color="#101A2D"/>
</linearGradient>
</defs>
</svg>
