<svg xmlns="http://www.w3.org/2000/svg" xmlns:xlink="http://www.w3.org/1999/xlink" version="1.1" id="Layer_1" x="0px" y="0px" width="100px" height="100px" viewBox="0 0 100 100" enable-background="new 0 0 100 100" xml:space="preserve">
<g>
	<path d="M10.468,34.748v-1.412H4.536v1.412H10.468L10.468,34.748z M90.955,34.748h5.486v-1.412h-5.486V34.748L90.955,34.748z    M70.091,87.301v1.959c0,0.779,0.632,1.412,1.411,1.412h1.96c0.78,0,1.413-0.633,1.413-1.412v-1.959   c0-0.78-0.633-1.412-1.413-1.412h-1.96C70.723,85.889,70.091,86.521,70.091,87.301L70.091,87.301z M76.341,87.301v1.959   c0,0.779,0.632,1.412,1.413,1.412h1.958c0.778,0,1.411-0.633,1.411-1.412v-1.959c0-0.78-0.633-1.412-1.411-1.412h-1.958   C76.973,85.889,76.341,86.521,76.341,87.301L76.341,87.301z M26.315,92.522v1.614c0,0.389,0.316,0.704,0.706,0.704h47.13   c0.391,0,0.707-0.315,0.707-0.704v-1.614c0-0.392-0.316-0.706-0.707-0.706h-47.13C26.631,91.816,26.315,92.131,26.315,92.522   L26.315,92.522z M16.979,81.497v1.958c0,0.781,0.633,1.414,1.413,1.414h1.958c0.78,0,1.413-0.633,1.413-1.414v-1.958   c0-0.78-0.632-1.413-1.413-1.413h-1.958C17.611,80.084,16.979,80.717,16.979,81.497L16.979,81.497z M23.229,81.497v1.958   c0,0.781,0.632,1.414,1.412,1.414h1.958c0.781,0,1.414-0.633,1.414-1.414v-1.958c0-0.78-0.633-1.413-1.414-1.413h-1.958   C23.861,80.084,23.229,80.717,23.229,81.497L23.229,81.497z M29.479,81.497v1.958c0,0.781,0.632,1.414,1.412,1.414h1.958   c0.781,0,1.414-0.633,1.414-1.414v-1.958c0-0.78-0.633-1.413-1.414-1.413h-1.958C30.111,80.084,29.479,80.717,29.479,81.497   L29.479,81.497z M35.729,81.497v1.958c0,0.781,0.633,1.414,1.413,1.414h1.958c0.78,0,1.413-0.633,1.413-1.414v-1.958   c0-0.78-0.633-1.413-1.413-1.413h-1.958C36.362,80.084,35.729,80.717,35.729,81.497L35.729,81.497z M41.979,81.497v1.958   c0,0.781,0.632,1.414,1.413,1.414h1.958c0.781,0,1.413-0.633,1.413-1.414v-1.958c0-0.78-0.632-1.413-1.413-1.413h-1.958   C42.612,80.084,41.979,80.717,41.979,81.497L41.979,81.497z M48.23,81.497v1.958c0,0.781,0.632,1.414,1.413,1.414h1.958   c0.78,0,1.413-0.633,1.413-1.414v-1.958c0-0.78-0.633-1.413-1.413-1.413h-1.958C48.862,80.084,48.23,80.717,48.23,81.497   L48.23,81.497z M54.479,81.497v1.958c0,0.781,0.633,1.414,1.414,1.414h1.959c0.779,0,1.412-0.633,1.412-1.414v-1.958   c0-0.78-0.633-1.413-1.412-1.413h-1.959C55.111,80.084,54.479,80.717,54.479,81.497L54.479,81.497z M60.73,81.497v1.958   c0,0.781,0.634,1.414,1.413,1.414h1.958c0.779,0,1.411-0.633,1.411-1.414v-1.958c0-0.78-0.632-1.413-1.411-1.413h-1.958   C61.364,80.084,60.73,80.717,60.73,81.497L60.73,81.497z M66.979,81.497v1.958c0,0.781,0.632,1.414,1.413,1.414h1.958   c0.781,0,1.413-0.633,1.413-1.414v-1.958c0-0.78-0.632-1.413-1.413-1.413h-1.958C67.611,80.084,66.979,80.717,66.979,81.497   L66.979,81.497z M73.23,81.497v1.958c0,0.781,0.632,1.414,1.414,1.414h1.957c0.779,0,1.412-0.633,1.412-1.414v-1.958   c0-0.78-0.633-1.413-1.412-1.413h-1.957C73.862,80.084,73.23,80.717,73.23,81.497L73.23,81.497z M79.48,81.497v1.958   c0,0.781,0.633,1.414,1.412,1.414h1.958c0.78,0,1.413-0.633,1.413-1.414v-1.958c0-0.78-0.633-1.413-1.413-1.413h-1.958   C80.113,80.084,79.48,80.717,79.48,81.497L79.48,81.497z M20.089,87.301v1.959c0,0.779,0.633,1.412,1.413,1.412h1.958   c0.78,0,1.413-0.633,1.413-1.412v-1.959c0-0.78-0.633-1.412-1.413-1.412h-1.958C20.722,85.889,20.089,86.521,20.089,87.301   L20.089,87.301z M13.84,75.692v1.959c0,0.78,0.632,1.413,1.413,1.413h1.958c0.781,0,1.413-0.633,1.413-1.413v-1.959   c0-0.778-0.632-1.412-1.413-1.412h-1.958C14.472,74.28,13.84,74.914,13.84,75.692L13.84,75.692z M20.09,75.692v1.959   c0,0.78,0.632,1.413,1.413,1.413h1.958c0.78,0,1.413-0.633,1.413-1.413v-1.959c0-0.778-0.632-1.412-1.413-1.412h-1.958   C20.722,74.28,20.09,74.914,20.09,75.692L20.09,75.692z M26.34,75.692v1.959c0,0.78,0.632,1.413,1.412,1.413h1.958   c0.78,0,1.413-0.633,1.413-1.413v-1.959c0-0.778-0.633-1.412-1.413-1.412h-1.958C26.972,74.28,26.34,74.914,26.34,75.692   L26.34,75.692z M32.589,75.692v1.959c0,0.78,0.633,1.413,1.414,1.413h1.958c0.78,0,1.412-0.633,1.412-1.413v-1.959   c0-0.778-0.632-1.412-1.412-1.412h-1.958C33.222,74.28,32.589,74.914,32.589,75.692L32.589,75.692z M38.84,75.692v1.959   c0,0.78,0.633,1.413,1.413,1.413h1.958c0.78,0,1.412-0.633,1.412-1.413v-1.959c0-0.778-0.632-1.412-1.412-1.412h-1.958   C39.473,74.28,38.84,74.914,38.84,75.692L38.84,75.692z M45.091,75.692v1.959c0,0.78,0.631,1.413,1.412,1.413h1.958   c0.781,0,1.413-0.633,1.413-1.413v-1.959c0-0.778-0.632-1.412-1.413-1.412h-1.958C45.722,74.28,45.091,74.914,45.091,75.692   L45.091,75.692z M51.34,75.692v1.959c0,0.78,0.634,1.413,1.412,1.413h1.959c0.781,0,1.413-0.633,1.413-1.413v-1.959   c0-0.778-0.632-1.412-1.413-1.412h-1.959C51.974,74.28,51.34,74.914,51.34,75.692L51.34,75.692z M57.59,75.692v1.959   c0,0.78,0.633,1.413,1.414,1.413h1.957c0.78,0,1.414-0.633,1.414-1.413v-1.959c0-0.778-0.634-1.412-1.414-1.412h-1.957   C58.223,74.28,57.59,74.914,57.59,75.692L57.59,75.692z M63.842,75.692v1.959c0,0.78,0.633,1.413,1.411,1.413h1.958   c0.781,0,1.414-0.633,1.414-1.413v-1.959c0-0.778-0.633-1.412-1.414-1.412h-1.958C64.475,74.28,63.842,74.914,63.842,75.692   L63.842,75.692z M70.091,75.692v1.959c0,0.78,0.632,1.413,1.413,1.413h1.958c0.78,0,1.413-0.633,1.413-1.413v-1.959   c0-0.778-0.633-1.412-1.413-1.412h-1.958C70.723,74.28,70.091,74.914,70.091,75.692L70.091,75.692z M76.341,75.692v1.959   c0,0.78,0.634,1.413,1.413,1.413h1.958c0.779,0,1.411-0.633,1.411-1.413v-1.959c0-0.778-0.632-1.412-1.411-1.412h-1.958   C76.975,74.28,76.341,74.914,76.341,75.692L76.341,75.692z M82.59,75.692v1.959c0,0.78,0.634,1.413,1.414,1.413h1.959   c0.779,0,1.412-0.633,1.412-1.413v-1.959c0-0.778-0.633-1.412-1.412-1.412h-1.959C83.224,74.28,82.59,74.914,82.59,75.692   L82.59,75.692z M26.339,87.301v1.959c0,0.779,0.632,1.412,1.413,1.412h1.958c0.781,0,1.413-0.633,1.413-1.412v-1.959   c0-0.78-0.632-1.412-1.413-1.412h-1.958C26.972,85.889,26.339,86.521,26.339,87.301L26.339,87.301z M32.589,87.301v1.959   c0,0.779,0.633,1.412,1.414,1.412h1.958c0.78,0,1.412-0.633,1.412-1.412v-1.959c0-0.78-0.632-1.412-1.412-1.412h-1.958   C33.222,85.889,32.589,86.521,32.589,87.301L32.589,87.301z M38.839,87.301v1.959c0,0.779,0.633,1.412,1.414,1.412h1.958   c0.78,0,1.413-0.633,1.413-1.412v-1.959c0-0.78-0.632-1.412-1.413-1.412h-1.958C39.472,85.889,38.839,86.521,38.839,87.301   L38.839,87.301z M45.09,87.301v1.959c0,0.779,0.632,1.412,1.413,1.412h1.958c0.781,0,1.412-0.633,1.412-1.412v-1.959   c0-0.78-0.631-1.412-1.412-1.412h-1.958C45.722,85.889,45.09,86.521,45.09,87.301L45.09,87.301z M51.34,87.301v1.959   c0,0.779,0.634,1.412,1.412,1.412h1.959c0.781,0,1.412-0.633,1.412-1.412v-1.959c0-0.78-0.631-1.412-1.412-1.412h-1.959   C51.974,85.889,51.34,86.521,51.34,87.301L51.34,87.301z M57.59,87.301v1.959c0,0.779,0.633,1.412,1.414,1.412h1.956   c0.781,0,1.415-0.633,1.415-1.412v-1.959c0-0.78-0.634-1.412-1.415-1.412h-1.956C58.223,85.889,57.59,86.521,57.59,87.301   L57.59,87.301z M63.84,87.301v1.959c0,0.779,0.635,1.412,1.413,1.412h1.958c0.781,0,1.412-0.633,1.412-1.412v-1.959   c0-0.78-0.631-1.412-1.412-1.412h-1.958C64.475,85.889,63.84,86.521,63.84,87.301L63.84,87.301z M20.424,39.256v5.531l21.795-0.052   v1.991c-0.067,3.078-2.576,5.559-5.647,5.598l-2.65,0.004c-2.644,0-4.787,1.98-4.787,4.423c0,2.444,2.143,4.425,4.787,4.425h33.429   c2.646,0,4.79-1.98,4.79-4.425c0-2.442-2.145-4.423-4.79-4.423l-2.542-0.004c-3.07-0.039-5.579-2.52-5.646-5.598v-2.032   l21.663-0.051v-5.387h-5.002v0.708H70.52v-0.708H30.673v0.708h-5.305v-0.708H20.424L20.424,39.256z M80.826,1.904H20.424v35.939   h4.944v-0.706h5.305v0.706H70.52v-0.706h5.305v0.706h5.002V1.904L80.826,1.904z M90.958,90.406c0,4.68-3.796,8.475-8.476,8.475   H18.946c-4.683,0-8.478-3.795-8.478-8.475V40.563H4.787c-0.779,0-1.412-0.634-1.412-1.413v-6.112c0-0.779,0.632-1.413,1.412-1.413   h5.681v-5.599l8.542-0.02V0.492h63.229v25.361l8.716-0.021v5.792h5.479c0.783,0,1.416,0.634,1.416,1.413v6.112   c0,0.779-0.633,1.413-1.416,1.413h-5.479L90.958,90.406L90.958,90.406z"/>
</g>
</svg>