<svg xmlns="http://www.w3.org/2000/svg" width="250" height="250" viewBox="0 0 132.292 132.292"><path d="M0 0h132.292v132.292H0C-.099 85.43 0 45.518 0 0zm124.883 119.057c0-.825-1.98-4.142-3.132-5.245-1.513-1.45-2.356-1.138-2.262.839.083 1.75.838 2.97 2.569 4.147 1.35.92 2.825 1.055 2.825.259zm-15.522-2.111c.485-.278 1.24-.51 1.676-.517 1.102-.017.99-.53-.319-1.462-1.05-.747-1.26-.77-3.75-.412-2.313.333-2.884.297-4.621-.293-1.09-.37-2.53-.95-3.2-1.287-3.006-1.519-6.784-6.089-7.96-9.63-.317-.955-.733-1.833-.923-1.95-.728-.45-1.95.228-2.504 1.39-.575 1.205-.572 1.216.923 3.804 2.261 3.915 3.066 4.99 4.787 6.4 2.021 1.655 6.095 3.712 8.13 4.103 2.587.498 6.772.419 7.761-.146zm-81.306-.554c1.533-.402 3.19-.94 3.682-1.197.492-.257 1.66-.841 2.596-1.299 1.95-.953 7.07-5.545 7.837-7.03.779-1.506.652-2.41-.394-2.807-.5-.19-1.121-.226-1.38-.08-.258.147-1.737 1.623-3.287 3.28-2.36 2.526-3.269 3.227-5.598 4.32-1.53.718-3.729 1.482-4.887 1.7-2.345.438-6.234.236-7.624-.397-.762-.347-1.153-.288-2.456.37-.853.43-1.608.832-1.677.894-.069.061.337.606.901 1.21.748.8 1.502 1.179 2.772 1.391 3.182.533 6.616.404 9.515-.355zm-19.038-.851c1.023-.6 1.538-1.17 1.667-1.846.237-1.238.123-1.407-1.135-1.683-2.023-.444-5.136 2.526-4.468 4.265.29.755 1.907.453 3.936-.736zm58.716.497c2.622-.596 4.538-1.717 5.834-3.414.672-.88 1.224-2.014 1.227-2.52.003-.506.1-1.277.217-1.713.17-.633.067-.794-.505-.794-1.285 0-1.789.39-2.56 1.982-1.353 2.797-4.03 4.106-7.185 3.514-1.451-.272-5.172-3.509-5.807-5.052-.66-1.604-.952-5.042-.663-7.797.315-2.995 1.435-6.439 3.637-11.18 1.55-3.34 1.553-3.356.969-4.58-.322-.676-.755-1.227-.962-1.226-1.734.01-6.516 12.967-6.82 18.478-.412 7.477 2.194 11.897 8.352 14.164 1.563.576 2.246.598 4.266.138zm15.363-.48c.67-1.023.23-2.178-1.01-2.648-1.06-.402-2.711.584-2.711 1.617 0 1.878 2.68 2.62 3.721 1.031zm-34.398-.2c.17 0 .506-.654.745-1.454.393-1.309.37-1.502-.23-1.94-.81-.593-1.581-.604-2.324-.034-.806.619-1.41 1.883-1.182 2.476.244.638 1.586 1.308 2.211 1.105.259-.084.61-.153.78-.153zm68.916-.558c1.012-2.638-1.135-4.802-4.195-4.228-.94.177-1.285.448-1.461 1.152-.305 1.214.145 1.854 1.987 2.828 1.78.942 3.362 1.048 3.669.248zm-104.561-4.04c0-.201-.26-.762-.577-1.246-.827-1.262-.343-1.454.942-.373 1.48 1.245 1.751 1.172 1.751-.472 0-.966-.229-1.61-.742-2.089-.69-.643-.856-.656-2.38-.194-.902.274-1.664.5-1.693.502-.03.002-.392.577-.805 1.277-.873 1.48-.536 2.25.99 2.26.51.003 1.164.159 1.455.347.69.446 1.059.441 1.059-.012zm10.885-.49c.97-.502 1.956-2.06 1.557-2.46-.115-.116-.495.259-.844.832-.44.725-1.149 1.2-2.324 1.562-1.595.49-1.624.52-.525.544.64.013 1.601-.202 2.136-.479zm94.582-1.247c-1.22-1.042-2.103-1.359-2.103-.753 0 .4 2.11 1.728 2.809 1.767.283.016-.034-.44-.706-1.014zm-98.662-2.125c2.917-2.666 3.551-4.945 1.377-4.945-1.157 0-3.359 1.544-3.923 2.75-.575 1.23-.49 3.952.122 3.952.275 0 1.366-.79 2.424-1.757zm92.652 1.448c.868-.243 1.462-1.102.761-1.102-.21 0-1.69-.635-3.29-1.41-2.768-1.343-4.162-1.73-4.136-1.147.028.622 2.03 3.117 2.826 3.52.93.47 2.456.525 3.839.139zm10.043-2.513c.813-2.364.86-5.854.112-8.345-.92-3.062-3.738-6.58-6.248-7.8-2.625-1.275-6.017-2.25-8.495-2.441l-2.757-.213-.611 1.281c-.336.705-.543 1.346-.46 1.425.084.079 1.853.392 3.932.696 2.079.304 4.411.876 5.183 1.27 2.15 1.096 4.983 3.886 5.75 5.66.9 2.085.944 5.33.102 7.67-.812 2.258-.4 3.008 1.559 2.844 1.19-.1 1.304-.222 1.933-2.047zM101.6 106.88c0-.724-3.03-3.425-4.458-3.975-.803-.308-1.55-.47-1.662-.358-.154.154 1.207 2.476 2.115 3.605.11.136 3.204 1.021 3.74 1.07.146.013.265-.141.265-.342zm-68.854-2.569c.517-.41 1.826-2.836 1.826-3.383 0-.921-2.183.551-3.685 2.486-2.329 2.999-2.38 3.344-.328 2.215.946-.521 1.93-1.114 2.187-1.318zm40.868.967c3.776-.9 7.712-2.16 9.871-3.161.612-.284 1.183-.516 1.269-.516.086 0 1.491-.794 3.122-1.763 6.44-3.831 16-14.493 15.343-17.112-.122-.485-.415-.88-.652-.88-.237 0-2 .51-3.918 1.134-3.095 1.007-3.577 1.279-4.293 2.412-1.177 1.864-6.033 6.212-8.278 7.412-1.067.57-2.34 1.357-2.827 1.748-2.42 1.943-10.869 3.842-17.64 3.964l-4.748.086-.291 1.94c-.377 2.513-.102 4.62.679 5.192 1.143.836 7.996.583 12.363-.456zm-63.64.06c.51-.388.613-.95.56-3.076-.076-3.02.226-3.746 2.826-6.797 1.527-1.792 1.743-2.23 1.567-3.175-.293-1.574-.62-1.792-1.893-1.265-1.282.531-3.503 3.194-4.83 5.793-1.19 2.332-1.549 6.765-.656 8.128.643.98 1.472 1.115 2.426.392zm43.197-4.696c.24-1.658.357-3.142.26-3.298-.096-.155-1.46-.779-3.033-1.385-3.671-1.416-4.37-1.92-8.474-6.111-3.44-3.515-4.746-5.471-6.856-10.278-.74-1.688-1.28-2.478-1.676-2.458-.32.016-2.5.056-4.842.088l-4.26.06.254 2.026c.367 2.934 3.867 9.334 7.538 13.782 1.576 1.91 5.786 5.417 7.696 6.413.797.415 1.649.996 1.893 1.29.594.716 4.185 2.508 6.998 3.494l2.28.798.893-.703c.748-.588.965-1.196 1.33-3.718zm50.37-1.408c2.356-.758 3.127-1.21 4.674-2.744 1.718-1.705 2.359-3.003 1.481-3.003-.203 0-.957.573-1.675 1.273-1.28 1.248-4.325 2.96-5.265 2.96-.261 0-.88.266-1.377.59-.635.417-1.802.615-3.956.671-3.85.1-3.67.07-3.497.591.395 1.198 5.387 1.023 9.614-.338zm-71.25.092c.672-.281 1.223-.638 1.223-.794 0-.155-1.31-.287-2.91-.292-3.656-.012-5.528-.332-7.282-1.246-1.44-.75-4.55-3.813-5.304-5.222-.24-.448-.514-.737-.609-.643-.094.095-.02.466.164.824.185.359.522 1.049.75 1.534 1.152 2.459 4.312 4.897 7.385 5.7 2.906.758 4.996.802 6.582.139zm-14.27-1.958c.178 0 .323-.16.323-.353 0-.511-.47-.434-1.255.205-.627.51-.63.54-.039.353.356-.113.792-.205.97-.205zm94.817.038c.716-.453-.091-.81-1.201-.532-.687.173-.807.313-.457.535.601.381 1.054.38 1.658-.002zm-40.519-2.39c0-.28-.298-1.175-.662-1.99-.365-.813-1.732-4.02-3.039-7.124a625.477 625.477 0 0 0-3.57-8.334c-.658-1.48-1.195-2.775-1.195-2.878 0-.429-4.575-7.707-5.639-8.97-.197-.234-.363-.551-.368-.705-.014-.412-2.096-2.563-3.892-4.021-5.42-4.402-12.141-4.752-16.056-.837-1.022 1.022-1.697 2.124-2.117 3.456-.584 1.852-.584 2.004-.008 2.884.793 1.21 1.707 1.013 2.002-.432.649-3.171 3.937-5.84 7.196-5.84 4.494 0 10.168 4.847 13.952 11.919.831 1.552 1.875 3.378 2.32 4.057.824 1.258 2.648 5.702 5.067 12.347 2.155 5.92 2.542 6.748 3.275 7.02 1.03.38 2.734.036 2.734-.553zm-24.341-3.793c0-.275-.196-.565-.435-.644-.34-.114-.347-.528-.034-1.882.547-2.372.604-15.856.077-18.608-.491-2.57-1-3.67-2.474-5.349-.764-.87-1.386-1.24-2.089-1.24-1.5 0-1.593.598-.358 2.317 1.843 2.567 2.244 5.367 2.044 14.264-.094 4.172-.071 7.93.05 8.353.29 1.011 2.212 3.29 2.776 3.29.243 0 .443-.226.443-.5zm-24.77-1.02c2.891-.629 3.198-.947 2.441-2.533-.68-1.426-.908-1.461-4.533-.699-2.796.588-3.11.843-3.119 2.518-.008 1.684.463 1.749 5.212.715zm-6.575-2.236c-.166-2.671.497-5.832 1.74-8.294.606-1.201.88-2.112.673-2.24-.502-.31-.982.074-1.61 1.288-1.657 3.205-2.406 8.134-1.57 10.333.569 1.496.899 1.029.767-1.087zm48.278 1.287a.354.354 0 0 0-.353-.353.354.354 0 0 0-.352.353c0 .194.158.352.352.352a.354.354 0 0 0 .353-.352zm18.874-1.764V85.9l-4.234-.28c-2.328-.154-5.239-.18-6.468-.057-2.207.22-2.232.236-2 1.16.335 1.336.794 1.774 2.118 2.023 2.006.376 7.698.69 9.173.506l1.41-.177zm4.232 1.61c.736-.307 1.29-.826 1.413-1.322.11-.45.156-3.12.1-5.933l-.1-5.115-1.236-.092c-2.266-.17-2.213-.356-2.155 7.589.025 3.437.17 5.38.403 5.38.2 0 .909-.228 1.575-.507zm-31.906-.915c.739-.395 1.918-2.403 1.6-2.722-.294-.293-6.464-.754-7.272-.543-.559.146-.697.485-.697 1.706 0 1.39.084 1.535.97 1.67 1.972.298 4.74.241 5.4-.111zM43.04 86.243c0-.966-.882-1.54-1.468-.956-.247.248-.235.598.037 1.106.558 1.043 1.43.952 1.43-.15zm-30.692-2.695c-1.679-1.427-3.07-2.12-3.992-1.99-.835.12-.933.682-.18 1.035.257.12 1.499.703 2.759 1.296 1.26.592 2.37.994 2.469.893.098-.101-.377-.657-1.056-1.234zm101.953-.93c0-1.517-.184-2.655-.5-3.087-.275-.376-.564-.605-.642-.508-.077.096-.074 1.485.008 3.086.112 2.182.273 2.91.642 2.91.372 0 .491-.583.491-2.402zm-93.184-.024c.458-.823.739-1.59.624-1.705-.289-.29-2.768 1.481-3.32 2.37-.611.987-.273 1.399.896 1.09.637-.17 1.254-.77 1.8-1.755zm99.622 1.137c.85-.235.78-1.181-.088-1.181-1.19 0-.786-.696.799-1.376 2.031-.87 2.528-1.518 2.117-2.757-.42-1.265-1.538-1.435-2.928-.445-.861.613-1.173.679-1.588.334-.711-.59-1.485.096-2.329 2.063-1.195 2.79-.721 2.899 1.867.43 1.8-1.716 3.807-2.972 4.17-2.608.173.172-2.961 3.263-3.95 3.896-.248.158-.848.74-1.333 1.29l-.882 1.002 1.764-.239c.97-.13 2.042-.315 2.381-.409zm-37.835-.467c0-2.252-6.925-7.267-9.656-6.993-1.462.147-1.66.987-.232.987 1.937 0 4.305 1.369 6.78 3.919 2.22 2.289 3.108 2.885 3.108 2.087zm-70.43-2.874c-.73-2.706-.683-2.635-1.352-2.08-.328.272-.538.301-.538.075 0-.782-1.157-1.48-2.457-1.48-1.455 0-1.776.382-1.776 2.111 0 .8.219 1.072 1.111 1.383 1.906.664 2.203.515 1.355-.676-1.382-1.94-.533-1.855 1.408.142 1.051 1.082 2.053 2.22 2.226 2.529.613 1.094.623.217.024-2.004zm41.669-1.563c.987-.412 1.884-.516 3.082-.358 2.12.282 2.262-.324.205-.878-1.11-.299-1.826-.298-2.829.002-1.525.457-3.906 2.384-3.585 2.902.12.195.54.035.974-.372.418-.393 1.387-.977 2.153-1.296zm16.145-5.03c1.628-2.596 5.806-7.113 8.246-8.915 2.826-2.088 5.709-3.45 8.636-4.08 2.537-.547 2.79-.543 4.741.071 3.599 1.132 5.334 3.405 4.855 6.36-.155.952-.049 1.349.465 1.738 1.79 1.355 3.17-.263 2.814-3.298-.483-4.107-2.847-6.3-7.924-7.35-4.6-.95-7.778-.287-13.403 2.801-2.96 1.624-5.482 4.067-9.552 9.253-2.67 3.402-2.98 4.394-1.893 6.054.595.908.6.909 1.147.19.302-.397 1.143-1.668 1.868-2.825zm38.19 2.758c4.092-.67 7.09-2.038 9.357-4.27 2.67-2.629 3.257-4.284 2.153-6.071-1.09-1.762-4.181-3.961-6.757-4.807-3.571-1.172-7.959-.843-7.685.577.089.462.771.693 2.984 1.009 4.662.666 8.24 3.152 8.24 5.724 0 2.112-4.071 4.614-8.761 5.383-6.764 1.11-14.27-3.21-16.654-9.584-.78-2.086-.805-2.11-2.063-2.005-1.19.1-1.27.182-1.222 1.245.078 1.743 3.747 7.308 5.933 9 1.885 1.458 5.847 3.354 7.95 3.804 1.816.389 4.133.387 6.525-.005zm-28.598-1.643c.505-.903.865-1.694.802-1.757-.193-.193-4.128 2.372-4.128 2.69 0 .372.656.644 1.645.68.556.02 1.014-.42 1.681-1.613zm-47.247-.44c8-2.644 8.81-3.086 8.583-4.681-.165-1.168-1.308-1.212-3.436-.133-5.466 2.769-16.043 3.414-20.12 1.227-2.19-1.174-3.9-2.945-3.9-4.038 0-1.16 2.127-3.369 4.168-4.326 1.052-.494 1.32-.828 1.41-1.756.09-.926-.017-1.146-.555-1.146-1.427 0-4.001 1.178-5.545 2.537-2.304 2.027-2.88 3.369-2.707 6.307.083 1.407 2.365 3.793 4.602 4.809 3.893 1.769 6.21 2.223 10.797 2.116 3.283-.077 4.788-.283 6.703-.916zm24.141-.094c-.52-.987-1-1.34-1.828-1.348-1.32-.011-.348 1.386 1.5 2.155.75.313.824.134.328-.807zm34.422-.65c.44-.712-1.218-2.432-2.574-2.67-1.686-.295-2.635-.9-5.013-3.202-2.106-2.039-2.681-2.223-3.888-1.246-.637.516-.72.776-.424 1.328.528.987 2.566 3.086 3.765 3.878 2.612 1.725 7.534 2.882 8.134 1.912zm-48.156-1.761c0-.73-.851-.974-1.235-.353-.295.478.103 1.058.727 1.058.28 0 .508-.317.508-.705zm8.225-.75c1.22-.626 2.711-2.151 2.711-2.774 0-.776-.7-1.415-1.55-1.415-1.14 0-2.683 1.73-2.683 3.006 0 1.602.281 1.821 1.522 1.184zm57.347-1.3c-.365-.716-1.538-2.492-2.605-3.948-4-5.452-5.369-7.664-6.499-10.495-1.106-2.772-2.14-3.826-2.14-2.182 0 .822 3.203 6.934 4.392 8.381.427.52 1.274 1.818 1.884 2.885.609 1.067 1.669 2.545 2.354 3.283.686.738 1.247 1.64 1.247 2.003 0 .852.94 1.793 1.556 1.557.382-.147.345-.44-.189-1.484zm16.768-.175c.9-.658.622-2.152-.427-2.3-1.046-.149-1.833.512-1.833 1.54 0 1.174 1.16 1.564 2.26.76zm-94.784-.691c.843-.427.863-.537.979-5.551.089-3.842.308-5.818.88-7.938.798-2.956 3.046-8.52 3.574-8.847.754-.465.149-1.6-1.897-3.559-1.212-1.161-2.641-2.395-3.175-2.742-.904-.589-1.03-.592-1.852-.053-1.861 1.22-5.434 10.181-6.674 16.74-.646 3.418-.75 11.025-.166 12.117.371.693.587.72 3.932.5 1.946-.127 3.926-.427 4.4-.667zm56.987-.7c.2-.579-.426-2.382-.826-2.382-.172 0-.412.4-.535.887-.317 1.265.958 2.666 1.36 1.495zM7.338 66.957c.233-.233.423-.618.423-.857 0-.587-.993-1.542-1.604-1.542-.671 0-1.698 1.63-1.444 2.29.244.638 2.023.711 2.625.11zm39.934-3.81c0-.194-.238-.353-.529-.353-.291 0-.53.16-.53.353 0 .194.239.353.53.353.291 0 .53-.159.53-.353zm15.732-3.038c2.941-3.66 3.974-5.573 3.457-6.398-1.024-1.634-2.082-.759-7.812 6.471-.985 1.243-.985 1.244.088 2.402 1.134 1.224 1.437 1.047 4.267-2.475zm13.003-.949c-.126-.426-.827-1.807-1.558-3.068a244.394 244.394 0 0 1-2.58-4.587 767.267 767.267 0 0 0-3.173-5.733c-3.916-7.002-5.994-13.86-5.935-19.582.053-5.098 2.75-8.516 7.201-9.126 1.528-.21 2.298.07 5.234 1.898.79.492 1.026.509 1.507.11 1.327-1.102-1.164-3.861-4.349-4.82-2.315-.698-4.322-.486-6.647.702-4.776 2.441-6.806 7.526-6.07 15.208.205 2.135.54 4.437.745 5.116.5 1.655 6.14 13.365 8.666 17.991 2.13 3.901 2.654 4.787 3.553 5.998 1.254 1.69 1.47 1.788 2.626 1.19.799-.413.961-.683.78-1.297zM38.06 55.386c1.444-3.623 1.613-5.128.774-6.88l-.676-1.41-.033 2.116c-.038 2.439-.935 5.555-2.476 8.61-.592 1.171-1.076 2.32-1.076 2.552 0 1.029 2.533-2.594 3.487-4.988zm66.082 2.381c.473-.63 1.13-1.833 1.46-2.672l.6-1.525-.801.242c-1.87.565-3.42 3.115-2.834 4.66.266.699.65.526 1.575-.705zm17.689-1.306c.994-.983-1.077-2.702-2.75-2.283-1.11.279-1.18 1.271-.16 2.223.735.684 2.246.715 2.91.06zM13.48 55.186c.336-.736.306-1.083-.158-1.852-.77-1.275-1.84-1.394-2.565-.286-.475.724-.5 1.024-.146 1.697.85 1.613 2.238 1.826 2.87.441zm75.573.164c.081-.08.199-4.146.262-9.033.11-8.545.087-8.908-.591-9.423-.388-.295-1.12-.54-1.627-.547-.85-.01-.938.133-1.143 1.841-.123 1.019-.224 5.439-.226 9.822l-.003 7.97 1.591-.242c.875-.133 1.657-.307 1.737-.388zm-39.607-1.904c.128-.97.342-5.137.476-9.258.268-8.28.237-8.403-1.896-7.52l-.997.414-.212 8.864c-.116 4.876-.126 9.003-.021 9.172.104.17.69.26 1.303.2 1.05-.102 1.127-.21 1.347-1.872zm66.345-.177c-.126-1.624-1.016-2.337-1.907-1.53-1.287 1.165-.546 3.063 1.12 2.868.777-.09.872-.252.787-1.338zm-98.583.157c1.024-.718.995-1.487-.076-1.975-1.646-.75-2.92.565-1.774 1.831.755.835.852.843 1.85.144zm105.84-1.991c.234-.233.424-.868.424-1.411 0-.908-.106-.987-1.323-.977-.727.006-1.6.222-1.94.48-.615.467-.83 1.648-.382 2.096.398.399 2.774.26 3.222-.188zM37.19 50.049c-.279-.45-.854-.02-.854.639 0 .448.098.47.525.115.29-.24.437-.58.329-.754zm25.667.892c2.279-.258 2.526-.674 1.538-2.584-.646-1.25-.998-1.303-7.245-1.086l-5.115.177v1.588c0 1.585.003 1.588 1.41 1.782 2.26.31 7.182.375 9.412.123zm-18.83-.564c.578-.578.533-1.87-.083-2.38-.278-.231-1.033-.37-1.676-.308-.987.095-1.187.267-1.283 1.104-.063.545.076 1.22.308 1.499.511.617 2.15.667 2.734.085zm60.975.05c3.3-.284 7.448-1.35 8.504-2.187.583-.461.561-1.728-.045-2.557-.468-.639-.524-.64-1.436-.043-2.082 1.364-3.973 1.624-11.846 1.628-8.482.004-9.23.174-8.887 2.02.1.54.357 1.1.571 1.242.518.347 8.665.283 13.14-.102zm-93.24-.746c.56-.89-.244-2.409-1.277-2.409-1.687 0-2.241 1.673-.872 2.634.94.66 1.637.586 2.148-.225zm71.57.19c.46-.285.31-1.81-.233-2.352-.28-.28-1.193-.526-2.028-.546-.836-.02-2.689-.187-4.117-.37-2.182-.28-2.788-.239-3.784.256-1.359.675-1.393.786-.674 2.178.485.937.717 1.035 2.734 1.156 2.463.147 7.678-.06 8.103-.323zm33.215-2.922c-1.548-2.073-2.075-2.106-.711-.044.513.776.933 1.62.933 1.877 0 .256.199.666.441.911.355.358.463.307.551-.262.063-.4-.465-1.478-1.214-2.482zM14.045 49.058c.088-.265-.044-.397-.309-.309a1.103 1.103 0 0 0-.617.618c-.088.264.044.397.309.308.254-.085.532-.362.617-.617zm8.37-1.81c.15-1.109.027-1.31-1.467-2.385-1.899-1.367-3.122-1.304-3.69.189-.408 1.075-.104 1.468 2.498 3.223 1.823 1.23 2.379 1.016 2.658-1.027zm15.674-1.299c-.013-.7-.945-2.071-1.222-1.795-.186.186.812 2.413 1.082 2.413.083 0 .146-.278.14-.618zm-22.057-1.673c.53-1.387 1.01-1.866 3.492-3.477 3.162-2.054 6.246-2.973 8.537-2.543.977.183 1.257.131 1.142-.212-.194-.581-1.43-.923-3.502-.967-1.947-.042-5.937 1.842-7.66 3.617-3.492 3.598-3.638 3.842-3.25 5.452.1.42.725-.52 1.24-1.87zm57.586-1.869c3.242-5.028 5.106-8.503 4.989-9.301-.157-1.075-1.953-1.557-2.832-.761-.349.315-.634.746-.635.959-.002.212-1.05 2.053-2.33 4.09-2.87 4.568-3.007 4.916-2.57 6.497.551 1.999 1.363 1.643 3.378-1.484zm29.095.395c1.99-1 4.263-1.242 6.736-.717 1.627.345 1.784-.228.212-.776-1.325-.462-3.502-.487-5.337-.06-1.56.362-5.291 3.11-4.957 3.65.14.227.469.075.845-.39.338-.418 1.464-1.186 2.501-1.708zm16.786.325c.68-.728 1.6-2.117 2.044-3.087.968-2.115 1.733-6.462 1.426-8.099-.244-1.3-1.43-3.016-2.08-3.008-1.205.016-1.423.64-1.449 4.137-.022 3.148-.115 3.631-.94 4.88a34.134 34.134 0 0 0-1.533 2.577c-.586 1.135-.586 1.259 0 2.558.338.75.768 1.365.955 1.365.187 0 .897-.595 1.577-1.323zM14.746 41.91c.66-.66.501-2.267-.406-4.086-1.111-2.23-1.726-4.868-1.446-6.211.125-.604.61-2.284 1.075-3.734.466-1.45.848-2.755.848-2.901 0-.146-.498-.523-1.107-.838-1.634-.845-2.526-.211-3.706 2.633-1.847 4.456-1.064 11.136 1.65 14.075 1.39 1.507 2.326 1.828 3.092 1.062zm26.176-2.25c3.241-3.274 8.247-6.482 12.347-7.913 1.844-.643 3.542-1.315 3.774-1.493.246-.188.419-1.189.413-2.388a38.247 38.247 0 0 1 .24-4.068c.231-1.85.2-1.988-.412-1.813-.365.104-1.499.295-2.52.424-2.67.34-7.75 2.002-10.036 3.286-3.427 1.925-9.504 6.21-10.8 7.616-2.002 2.173-1.954 3.302.186 4.317.676.32 1.322.836 1.436 1.145.475 1.286 1.979 3.207 2.509 3.206.313-.001 1.602-1.044 2.863-2.319zm57.705-1.094c1.247-1.101 2.267-2.272 2.267-2.602 0-.676-3.522-3.897-7.022-6.421-3.974-2.867-9.538-5.227-16.966-7.197-2.801-.742-9.397-1.273-10.236-.824-.606.324-.875 1-1.522 3.825-.196.857.358 2.507.99 2.952.199.139 1.869.25 3.712.246 5.253-.009 8.618.852 14.688 3.757 3.907 1.87 7.265 4.292 9.608 6.93.654.735 1.42 1.337 1.701 1.337.282 0 1.533-.901 2.78-2.003zm12.985-.972c1.09-1.43 1.125-1.611.307-1.61-.875.003-2.794 1.239-3.253 2.097-.356.665-.29.724.817.724.959 0 1.395-.248 2.13-1.21zm-86.761-2.596a418.58 418.58 0 0 1-1.937-1.344c-1.35-.94-4.57-1.859-4.57-1.304 0 .099.418.68.928 1.29.689.822 1.486 1.25 3.087 1.656 1.985.504 3.417.333 2.492-.298zm45.435-.209c.142-.216.259-.631.259-.922 0-1.693-1.917-1.86-2.8-.245-.502.919-.492 1.027.146 1.5.715.533 1.936.363 2.395-.333zm41.578-3.503c.945-.618 1.72-1.247 1.724-1.397.004-.15-.428-.438-.958-.64-1.893-.72-5.738.978-5.738 2.533 0 1.394 2.454 1.15 4.972-.496zm-83.619-1.312c.376-.201.683-.623.683-.938 0-.863-4.557-4.973-6.132-5.531-.603-.214-.648-.087-.482 1.38.199 1.763.937 2.758 3.262 4.398 1.63 1.149 1.754 1.18 2.67.69zm91.06-1.928c.422-.485.976-.882 1.232-.882s.466-.172.466-.382c0-.444-.087-.411-1.852.687-.728.452-1.323.966-1.323 1.14 0 .593.706.323 1.477-.563zm-4.038-.751l.792-.212-.92-1.093c-1.053-1.251-.603-1.684.798-.767 1.17.768 1.628.323 1.602-1.556-.038-2.794-.977-2.862-3.72-.268-1.386 1.31-1.988 2.148-1.988 2.764 0 .486.105.989.235 1.118.29.291 2.138.299 3.201.014zm-94.95-2.03c.318-.828-.835-3.148-1.441-2.902l-1.06.429c-.586.237-.737-.398-.177-.744.194-.12.353-.526.353-.902 0-.592-.252-.684-1.852-.68-1.02.003-2.056.135-2.305.293-.678.43-.164 1.344 1.034 1.84.584.242 1.31.819 1.613 1.283 1.005 1.533 3.44 2.412 3.836 1.383zm74.14-1.608c3.639-4.225 11.042-5.654 15.689-3.03l1.666.942 1.254-.956c1.19-.908 1.224-.99.66-1.613-.327-.361-1.641-1.165-2.92-1.786-4.353-2.113-10.679-1.683-14.722 1.001-4.078 2.707-5.357 4.62-4.35 6.503.559 1.043 1.09.836 2.723-1.06zm-50.58-.202c.704-.294 1.278-.73 1.278-.97-.002-.953-2.795-3.524-5.467-5.033-4.361-2.463-6.951-3.107-11.642-2.895-4.075.184-6.41.785-7.035 1.811-.302.495-.177.771.654 1.442.965.778 1.08.794 1.881.269.629-.412 1.71-.556 4.088-.545 4.966.024 8.49 1.312 12.23 4.47 1.261 1.066 2.393 1.948 2.514 1.961.122.013.797-.216 1.5-.51zm77.625-.149c1.215-.8 3.029-3.381 3.029-4.31 0-1.116-2.43-.884-3.588.343-1.02 1.082-1.103 1.346-1.04 3.327.048 1.515.187 1.57 1.599.64zM20.659 18.798c-.972-.903-1.437-1.146-1.55-.809-.195.585 1.512 2.123 2.342 2.11.422-.007.19-.389-.792-1.3zm66.816.612c.898-.48 1.513-2.36 1.054-3.217-.454-.848-2.32-.898-3.217-.087-.792.716-.84 2.347-.091 3.095.637.637 1.333.702 2.254.21zm-33.173-1.642c1.342-1.706.84-2.599-1.463-2.599-1.177 0-2.01.805-2.028 1.958-.027 1.75 2.285 2.174 3.491.64zm-38.427.425c0-.562-4.967-4.605-5.937-4.832-.518-.122-1.218-.336-1.555-.477-.461-.193-.702-.018-.978.707-.335.882-.234 1.088 1.205 2.447.865.817 2.099 1.653 2.743 1.86 1.154.369 4.522.59 4.522.295z"/></svg>